<svg xmlns="http://www.w3.org/2000/svg" version="1.1" xmlns:xlink="http://www.w3.org/1999/xlink" xmlns:svgjs="http://svgjs.dev/svgjs" width="1500" height="500" viewBox="0 0 1500 500"><g transform="matrix(1,0,0,1,-0.9090909090909918,-1.0750149234722812)"><svg viewBox="0 0 396 132" data-background-color="#fafafa" preserveAspectRatio="xMidYMid meet" height="500" width="1500" xmlns="http://www.w3.org/2000/svg" xmlns:xlink="http://www.w3.org/1999/xlink"><g id="tight-bounds" transform="matrix(1,0,0,1,0.2400000000000091,0.28380393979668384)"><svg viewBox="0 0 395.52 131.43239212040663" height="131.43239212040663" width="395.52"><g><svg viewBox="0 0 672.8423263030173 223.58736970536197" height="131.43239212040663" width="395.52"><g transform="matrix(1,0,0,1,0,54.88938645126003)"><svg viewBox="0 0 395.52 113.8085968028419" height="113.8085968028419" width="395.52"><g id="textblocktransform"><svg viewBox="0 0 395.52 113.8085968028419" height="113.8085968028419" width="395.52" id="textblock"><g><svg viewBox="0 0 395.52 113.8085968028419" height="113.8085968028419" width="395.52"><g transform="matrix(1,0,0,1,0,0)"><svg width="395.52" viewBox="-4.25 -37 165.79 48.6" height="113.8085968028419" data-palette-color="#130912"><g class="wordmark-text-0" data-fill-palette-color="primary" id="text-0"><path d="M0.85 11.6L0.85 11.6Q-2.2 11.6-4.25 10.45L-4.25 10.45-3.15 6.7Q-2.5 7.1-1.58 7.4-0.65 7.7 0.3 7.7L0.3 7.7Q4.55 7.7 4.55 2.4L4.55 2.4 4.55-26 9.05-26 9.05 2.85Q9.05 5.9 7.95 7.83 6.85 9.75 5 10.68 3.15 11.6 0.85 11.6ZM6.7-30.45L6.7-30.45Q5.4-30.45 4.48-31.4 3.55-32.35 3.55-33.6L3.55-33.6Q3.55-35.05 4.4-35.9 5.25-36.75 6.7-36.75L6.7-36.75Q8-36.75 8.93-35.83 9.85-34.9 9.85-33.6L9.85-33.6Q9.85-32.2 9-31.33 8.15-30.45 6.7-30.45ZM27 0.6L27 0.6Q23.75 0.6 21.1-1.05 18.45-2.7 16.87-5.73 15.3-8.75 15.3-12.85L15.3-12.85Q15.3-16.75 16.87-19.85 18.45-22.95 21.22-24.78 24-26.6 27.6-26.6L27.6-26.6Q29.85-26.6 31.67-25.83 33.5-25.05 34.85-23.9L34.85-23.9 34.85-26 38.95-26 38.95-6.3Q38.95-4.4 39.87-3.83 40.8-3.25 41.9-3.25L41.9-3.25 40.95 0.25Q36.15 0.25 35.15-3.65L35.15-3.65Q34-2.05 32.02-0.73 30.05 0.6 27 0.6ZM28-3.4L28-3.4Q29.9-3.4 31.6-4.33 33.3-5.25 34.45-6.65L34.45-6.65 34.45-20.6Q33.1-21.55 31.47-22.13 29.85-22.7 28.05-22.7L28.05-22.7Q25.65-22.7 23.82-21.48 22-20.25 20.95-18.07 19.9-15.9 19.9-13L19.9-13Q19.9-10.2 20.95-8.03 22-5.85 23.85-4.63 25.7-3.4 28-3.4ZM52.4 0L47.9 0 47.9-26 52.4-26 52.4 0ZM50.15-30.45L50.15-30.45Q48.85-30.45 47.92-31.4 47-32.35 47-33.6L47-33.6Q47-35.05 47.85-35.9 48.7-36.75 50.15-36.75L50.15-36.75Q51.45-36.75 52.37-35.83 53.3-34.9 53.3-33.6L53.3-33.6Q53.3-32.2 52.45-31.33 51.6-30.45 50.15-30.45Z" fill="#130912" data-fill-palette-color="primary"></path><path d="M79.3 0.6L79.3 0.6Q76.35 0.6 73.97-0.15 71.6-0.9 70.05-2.1L70.05-2.1 71.95-5.85Q73.25-4.75 75.22-4.03 77.2-3.3 79.45-3.3L79.45-3.3Q82.25-3.3 83.67-4.23 85.1-5.15 85.1-6.6L85.1-6.6Q85.1-7.65 84.57-8.45 84.05-9.25 82.65-10.03 81.25-10.8 78.6-11.7L78.6-11.7Q74.95-12.95 73.12-14.68 71.3-16.4 71.3-19.45L71.3-19.45Q71.3-22.45 73.92-24.53 76.55-26.6 81.2-26.6L81.2-26.6Q83.7-26.6 85.65-26.08 87.6-25.55 89.15-24.75L89.15-24.75 87.9-21.05Q86.55-21.85 84.82-22.35 83.1-22.85 81-22.85L81-22.85Q78.4-22.85 77.05-21.8 75.7-20.75 75.7-19.5L75.7-19.5Q75.7-18.3 76.75-17.45 77.8-16.6 80.85-15.6L80.85-15.6Q85.8-13.95 87.75-11.95 89.7-9.95 89.7-6.95L89.7-6.95Q89.7-3.45 86.87-1.43 84.05 0.6 79.3 0.6ZM100.2 0L95.7 0 95.7-37 100.2-37 100.2-21.85Q101.6-23.9 103.75-25.25 105.9-26.6 108.8-26.6L108.8-26.6Q113.2-26.6 115.37-23.95 117.55-21.3 117.55-16.95L117.55-16.95 117.55 0 113.05 0 113.05-16.45Q113.05-19.25 111.75-20.95 110.45-22.65 108.1-22.65L108.1-22.65Q105.8-22.65 103.72-21.03 101.65-19.4 100.2-17.2L100.2-17.2 100.2 0ZM135.24 0.6L135.24 0.6Q131.99 0.6 129.34-1.05 126.69-2.7 125.12-5.73 123.54-8.75 123.54-12.85L123.54-12.85Q123.54-16.75 125.12-19.85 126.69-22.95 129.47-24.78 132.24-26.6 135.84-26.6L135.84-26.6Q138.09-26.6 139.92-25.83 141.74-25.05 143.09-23.9L143.09-23.9 143.09-26 147.19-26 147.19-6.3Q147.19-4.4 148.12-3.83 149.04-3.25 150.14-3.25L150.14-3.25 149.19 0.25Q144.39 0.25 143.39-3.65L143.39-3.65Q142.24-2.05 140.27-0.73 138.29 0.6 135.24 0.6ZM136.24-3.4L136.24-3.4Q138.14-3.4 139.84-4.33 141.54-5.25 142.69-6.65L142.69-6.65 142.69-20.6Q141.34-21.55 139.72-22.13 138.09-22.7 136.29-22.7L136.29-22.7Q133.89-22.7 132.07-21.48 130.24-20.25 129.19-18.07 128.14-15.9 128.14-13L128.14-13Q128.14-10.2 129.19-8.03 130.24-5.85 132.09-4.63 133.94-3.4 136.24-3.4ZM160.64 0L156.14 0 156.14-26 160.64-26 160.64 0ZM158.39-30.45L158.39-30.45Q157.09-30.45 156.17-31.4 155.24-32.35 155.24-33.6L155.24-33.6Q155.24-35.05 156.09-35.9 156.94-36.75 158.39-36.75L158.39-36.75Q159.69-36.75 160.61-35.83 161.54-34.9 161.54-33.6L161.54-33.6Q161.54-32.2 160.69-31.33 159.84-30.45 158.39-30.45Z" fill="#e81789" data-fill-palette-color="accent"></path></g></svg></g></svg></g></svg></g></svg></g><g transform="matrix(1,0,0,1,449.2549565976554,0)"><svg viewBox="0 0 223.58736970536197 223.58736970536197" height="223.58736970536197" width="223.58736970536197"><g><svg></svg></g><g id="icon-0"><svg viewBox="0 0 223.58736970536197 223.58736970536197" height="223.58736970536197" width="223.58736970536197"><g><path d="M0 111.794c0-61.742 50.052-111.794 111.794-111.794 61.742 0 111.794 50.052 111.793 111.794 0 61.742-50.052 111.794-111.793 111.793-61.742 0-111.794-50.052-111.794-111.793zM111.794 213.324c56.074 0 101.53-45.457 101.53-101.53 0-56.074-45.457-101.53-101.53-101.531-56.074 0-101.53 45.457-101.531 101.531 0 56.074 45.457 101.53 101.531 101.53z" data-fill-palette-color="accent" fill="#e81789" stroke="transparent"></path></g><g transform="matrix(1,0,0,1,50.53507078900006,77.99732389696914)"><svg viewBox="0 0 122.51722812736185 67.59272191142368" height="67.59272191142368" width="122.51722812736185"><g><svg xmlns="http://www.w3.org/2000/svg" xmlns:xlink="http://www.w3.org/1999/xlink" version="1.1" x="0" y="0" viewBox="3.375 24.277 93.25 51.446" enable-background="new 0 0 100 100" xml:space="preserve" height="67.59272191142368" width="122.51722812736185" class="icon-dxe-0" data-fill-palette-color="accent" id="dxe-0"><path d="M86.724 35.169H85.76V31.621A0.68 0.68 0 0 0 85.081 30.942H15.792A0.68 0.68 0 0 0 15.113 31.621V38.309C15.113 50.817 21.082 62.374 30.716 69.695V75.723H70.153V69.714A39.3 39.3 0 0 0 82.077 54.966H86.724C92.181 54.966 96.625 50.527 96.625 45.069S92.181 35.169 86.724 35.169M86.724 49.536H84.136A39.5 39.5 0 0 0 85.693 40.599H86.725A4.475 4.475 0 0 1 91.196 45.07 4.476 4.476 0 0 1 86.724 49.536" fill="#e81789" data-fill-palette-color="accent"></path><path d="M17.693 24.277H8.764V51.518L3.71 56.577A1.13 1.13 0 0 0 3.375 57.378V67.537C3.375 68.161 3.882 68.668 4.506 68.668H15.004C15.633 68.668 16.135 68.161 16.135 67.537V57.442C16.135 57.152 16.026 56.876 15.827 56.664L11.026 51.591V26.539H17.692A1.132 1.132 0 0 0 17.693 24.277M13.873 57.894V66.406H5.638V57.844L9.846 53.636 10.57 54.401z" fill="#e81789" data-fill-palette-color="accent"></path></svg></g></svg></g></svg></g></svg></g></svg></g><defs></defs></svg><rect width="395.52" height="131.43239212040663" fill="none" stroke="none" visibility="hidden"></rect></g></svg></g></svg>